<svg xmlns="http://www.w3.org/2000/svg" xmlns:xlink="http://www.w3.org/1999/xlink" width="500" zoomAndPan="magnify" viewBox="0 0 375 374.999991" height="500" preserveAspectRatio="xMidYMid meet" version="1.2"><defs><linearGradient x1="0" gradientTransform="matrix(0.75,0,0,0.75,0.0000045,0)" y1="250" x2="499.999979" gradientUnits="userSpaceOnUse" y2="250" id="9dfa50ff68"><stop style="stop-color:#a6a6a6;stop-opacity:1;" offset="0"/><stop style="stop-color:#a6a6a6;stop-opacity:1;" offset="0.0078125"/><stop style="stop-color:#a7a7a7;stop-opacity:1;" offset="0.015625"/><stop style="stop-color:#a8a8a8;stop-opacity:1;" offset="0.0234375"/><stop style="stop-color:#a8a8a8;stop-opacity:1;" offset="0.03125"/><stop style="stop-color:#a9a9a9;stop-opacity:1;" offset="0.0390625"/><stop style="stop-color:#aaaaaa;stop-opacity:1;" offset="0.046875"/><stop style="stop-color:#ababab;stop-opacity:1;" offset="0.0546875"/><stop style="stop-color:#ababab;stop-opacity:1;" offset="0.0625"/><stop style="stop-color:#acacac;stop-opacity:1;" offset="0.0703125"/><stop style="stop-color:#adadad;stop-opacity:1;" offset="0.078125"/><stop style="stop-color:#adadad;stop-opacity:1;" offset="0.0859375"/><stop style="stop-color:#aeaeae;stop-opacity:1;" offset="0.09375"/><stop style="stop-color:#afafaf;stop-opacity:1;" offset="0.101562"/><stop style="stop-color:#afafaf;stop-opacity:1;" offset="0.109375"/><stop style="stop-color:#b0b0b0;stop-opacity:1;" offset="0.117188"/><stop style="stop-color:#b1b1b1;stop-opacity:1;" offset="0.125"/><stop style="stop-color:#b1b1b1;stop-opacity:1;" offset="0.132812"/><stop style="stop-color:#b2b2b2;stop-opacity:1;" offset="0.140625"/><stop style="stop-color:#b3b3b3;stop-opacity:1;" offset="0.148437"/><stop style="stop-color:#b4b4b4;stop-opacity:1;" offset="0.15625"/><stop style="stop-color:#b4b4b4;stop-opacity:1;" offset="0.164062"/><stop style="stop-color:#b5b5b5;stop-opacity:1;" offset="0.171875"/><stop style="stop-color:#b6b6b6;stop-opacity:1;" offset="0.179687"/><stop style="stop-color:#b6b6b6;stop-opacity:1;" offset="0.1875"/><stop style="stop-color:#b7b7b7;stop-opacity:1;" offset="0.195312"/><stop style="stop-color:#b8b8b8;stop-opacity:1;" offset="0.203125"/><stop style="stop-color:#b8b8b8;stop-opacity:1;" offset="0.210938"/><stop style="stop-color:#b9b9b9;stop-opacity:1;" offset="0.21875"/><stop style="stop-color:#bababa;stop-opacity:1;" offset="0.226562"/><stop style="stop-color:#bbbbbb;stop-opacity:1;" offset="0.234375"/><stop style="stop-color:#bbbbbb;stop-opacity:1;" offset="0.242188"/><stop style="stop-color:#bcbcbc;stop-opacity:1;" offset="0.25"/><stop style="stop-color:#bdbdbd;stop-opacity:1;" offset="0.257812"/><stop style="stop-color:#bdbdbd;stop-opacity:1;" offset="0.265625"/><stop style="stop-color:#bebebe;stop-opacity:1;" offset="0.273437"/><stop style="stop-color:#bfbfbf;stop-opacity:1;" offset="0.28125"/><stop style="stop-color:#bfbfbf;stop-opacity:1;" offset="0.289062"/><stop style="stop-color:#c0c0c0;stop-opacity:1;" offset="0.296875"/><stop style="stop-color:#c1c1c1;stop-opacity:1;" offset="0.304687"/><stop style="stop-color:#c1c1c1;stop-opacity:1;" offset="0.3125"/><stop style="stop-color:#c2c2c2;stop-opacity:1;" offset="0.320312"/><stop style="stop-color:#c3c3c3;stop-opacity:1;" offset="0.328125"/><stop style="stop-color:#c4c4c4;stop-opacity:1;" offset="0.335937"/><stop style="stop-color:#c4c4c4;stop-opacity:1;" offset="0.34375"/><stop style="stop-color:#c5c5c5;stop-opacity:1;" offset="0.351562"/><stop style="stop-color:#c6c6c6;stop-opacity:1;" offset="0.359375"/><stop style="stop-color:#c6c6c6;stop-opacity:1;" offset="0.367187"/><stop style="stop-color:#c7c7c7;stop-opacity:1;" offset="0.375"/><stop style="stop-color:#c8c8c8;stop-opacity:1;" offset="0.382812"/><stop style="stop-color:#c8c8c8;stop-opacity:1;" offset="0.390625"/><stop style="stop-color:#c9c9c9;stop-opacity:1;" offset="0.398438"/><stop style="stop-color:#cacaca;stop-opacity:1;" offset="0.40625"/><stop style="stop-color:#cbcbcb;stop-opacity:1;" offset="0.414062"/><stop style="stop-color:#cbcbcb;stop-opacity:1;" offset="0.421875"/><stop style="stop-color:#cccccc;stop-opacity:1;" offset="0.429688"/><stop style="stop-color:#cdcdcd;stop-opacity:1;" offset="0.4375"/><stop style="stop-color:#cdcdcd;stop-opacity:1;" offset="0.445312"/><stop style="stop-color:#cecece;stop-opacity:1;" offset="0.453125"/><stop style="stop-color:#cfcfcf;stop-opacity:1;" offset="0.460938"/><stop style="stop-color:#cfcfcf;stop-opacity:1;" offset="0.46875"/><stop style="stop-color:#d0d0d0;stop-opacity:1;" offset="0.476562"/><stop style="stop-color:#d1d1d1;stop-opacity:1;" offset="0.484375"/><stop style="stop-color:#d1d1d1;stop-opacity:1;" offset="0.492188"/><stop style="stop-color:#d2d2d2;stop-opacity:1;" offset="0.5"/><stop style="stop-color:#d3d3d3;stop-opacity:1;" offset="0.507812"/><stop style="stop-color:#d4d4d4;stop-opacity:1;" offset="0.515625"/><stop style="stop-color:#d4d4d4;stop-opacity:1;" offset="0.523437"/><stop style="stop-color:#d5d5d5;stop-opacity:1;" offset="0.53125"/><stop style="stop-color:#d6d6d6;stop-opacity:1;" offset="0.539062"/><stop style="stop-color:#d6d6d6;stop-opacity:1;" offset="0.546875"/><stop style="stop-color:#d7d7d7;stop-opacity:1;" offset="0.554687"/><stop style="stop-color:#d8d8d8;stop-opacity:1;" offset="0.5625"/><stop style="stop-color:#d8d8d8;stop-opacity:1;" offset="0.570312"/><stop style="stop-color:#d9d9d9;stop-opacity:1;" offset="0.578125"/><stop style="stop-color:#dadada;stop-opacity:1;" offset="0.585937"/><stop style="stop-color:#dadada;stop-opacity:1;" offset="0.59375"/><stop style="stop-color:#dbdbdb;stop-opacity:1;" offset="0.601562"/><stop style="stop-color:#dcdcdc;stop-opacity:1;" offset="0.609375"/><stop style="stop-color:#dddddd;stop-opacity:1;" offset="0.617187"/><stop style="stop-color:#dddddd;stop-opacity:1;" offset="0.625"/><stop style="stop-color:#dedede;stop-opacity:1;" offset="0.632812"/><stop style="stop-color:#dfdfdf;stop-opacity:1;" offset="0.640625"/><stop style="stop-color:#dfdfdf;stop-opacity:1;" offset="0.648437"/><stop style="stop-color:#e0e0e0;stop-opacity:1;" offset="0.65625"/><stop style="stop-color:#e1e1e1;stop-opacity:1;" offset="0.664062"/><stop style="stop-color:#e1e1e1;stop-opacity:1;" offset="0.671875"/><stop style="stop-color:#e2e2e2;stop-opacity:1;" offset="0.679687"/><stop style="stop-color:#e3e3e3;stop-opacity:1;" offset="0.6875"/><stop style="stop-color:#e4e4e4;stop-opacity:1;" offset="0.695312"/><stop style="stop-color:#e4e4e4;stop-opacity:1;" offset="0.703125"/><stop style="stop-color:#e5e5e5;stop-opacity:1;" offset="0.710937"/><stop style="stop-color:#e6e6e6;stop-opacity:1;" offset="0.71875"/><stop style="stop-color:#e6e6e6;stop-opacity:1;" offset="0.726562"/><stop style="stop-color:#e7e7e7;stop-opacity:1;" offset="0.734375"/><stop style="stop-color:#e8e8e8;stop-opacity:1;" offset="0.742187"/><stop style="stop-color:#e8e8e8;stop-opacity:1;" offset="0.75"/><stop style="stop-color:#e9e9e9;stop-opacity:1;" offset="0.757812"/><stop style="stop-color:#eaeaea;stop-opacity:1;" offset="0.765625"/><stop style="stop-color:#eaeaea;stop-opacity:1;" offset="0.773438"/><stop style="stop-color:#ebebeb;stop-opacity:1;" offset="0.78125"/><stop style="stop-color:#ececec;stop-opacity:1;" offset="0.789062"/><stop style="stop-color:#ededed;stop-opacity:1;" offset="0.796875"/><stop style="stop-color:#ededed;stop-opacity:1;" offset="0.804688"/><stop style="stop-color:#eeeeee;stop-opacity:1;" offset="0.8125"/><stop style="stop-color:#efefef;stop-opacity:1;" offset="0.820312"/><stop style="stop-color:#efefef;stop-opacity:1;" offset="0.828125"/><stop style="stop-color:#f0f0f0;stop-opacity:1;" offset="0.835938"/><stop style="stop-color:#f1f1f1;stop-opacity:1;" offset="0.84375"/><stop style="stop-color:#f1f1f1;stop-opacity:1;" offset="0.851562"/><stop style="stop-color:#f2f2f2;stop-opacity:1;" offset="0.859375"/><stop style="stop-color:#f3f3f3;stop-opacity:1;" offset="0.867188"/><stop style="stop-color:#f4f4f4;stop-opacity:1;" offset="0.875"/><stop style="stop-color:#f4f4f4;stop-opacity:1;" offset="0.882812"/><stop style="stop-color:#f5f5f5;stop-opacity:1;" offset="0.890625"/><stop style="stop-color:#f6f6f6;stop-opacity:1;" offset="0.898438"/><stop style="stop-color:#f6f6f6;stop-opacity:1;" offset="0.90625"/><stop style="stop-color:#f7f7f7;stop-opacity:1;" offset="0.914062"/><stop style="stop-color:#f8f8f8;stop-opacity:1;" offset="0.921875"/><stop style="stop-color:#f8f8f8;stop-opacity:1;" offset="0.929688"/><stop style="stop-color:#f9f9f9;stop-opacity:1;" offset="0.9375"/><stop style="stop-color:#fafafa;stop-opacity:1;" offset="0.945312"/><stop style="stop-color:#fafafa;stop-opacity:1;" offset="0.953125"/><stop style="stop-color:#fbfbfb;stop-opacity:1;" offset="0.960938"/><stop style="stop-color:#fcfcfc;stop-opacity:1;" offset="0.96875"/><stop style="stop-color:#fdfdfd;stop-opacity:1;" offset="0.976562"/><stop style="stop-color:#fdfdfd;stop-opacity:1;" offset="0.984375"/><stop style="stop-color:#fefefe;stop-opacity:1;" offset="0.992188"/><stop style="stop-color:#ffffff;stop-opacity:1;" offset="1"/></linearGradient><clipPath id="f67149b049"><path d="M 37.5 4.027344 L 136.5 4.027344 L 136.5 57.277344 L 37.5 57.277344 Z M 37.5 4.027344 "/></clipPath><clipPath id="0a20d96cd1"><path d="M 77 48 L 87 48 L 87 57.277344 L 77 57.277344 Z M 77 48 "/></clipPath><clipPath id="585b4ce08d"><path d="M 87 48 L 97 48 L 97 57.277344 L 87 57.277344 Z M 87 48 "/></clipPath><clipPath id="989f03bb26"><path d="M 46 14 L 128 14 L 128 57.277344 L 46 57.277344 Z M 46 14 "/></clipPath></defs><g id="12980c82a1"><rect x="0" width="375" y="0" height="374.999991" style="fill:#ffffff;fill-opacity:1;stroke:none;"/><rect x="0" width="375" y="0" height="374.999991" style="fill:url(#9dfa50ff68);stroke:none;"/><g clip-rule="nonzero" clip-path="url(#f67149b049)"><path style=" stroke:none;fill-rule:nonzero;fill:#393536;fill-opacity:1;" d="M 136.378906 56.882812 L 127.097656 46.84375 L 118.03125 37.085938 C 118.152344 31.019531 118.304688 24.949219 118.390625 18.882812 C 118.398438 18.230469 117.882812 17.695312 117.234375 17.683594 L 117.195312 17.683594 L 107.445312 17.523438 C 106.707031 17.511719 106.101562 18.097656 106.089844 18.835938 L 106.089844 18.882812 L 106.011719 23.632812 L 98.460938 15.578125 L 88.429688 4.835938 L 88.398438 4.800781 C 87.632812 4.027344 86.390625 4.015625 85.617188 4.78125 L 85.558594 4.835938 C 81.363281 8.980469 77.140625 13.097656 73.027344 17.316406 C 68.90625 21.53125 64.863281 25.824219 60.882812 30.175781 C 58.871094 32.332031 56.898438 34.523438 54.925781 36.714844 C 52.941406 38.898438 51 41.121094 49.046875 43.332031 C 45.164062 47.78125 41.316406 52.261719 37.613281 56.882812 C 37.546875 56.964844 37.546875 57.085938 37.613281 57.167969 C 37.695312 57.261719 37.839844 57.273438 37.933594 57.195312 C 42.433594 53.347656 46.789062 49.359375 51.109375 45.34375 C 53.257812 43.320312 55.417969 41.3125 57.53125 39.257812 C 59.664062 37.21875 61.789062 35.175781 63.882812 33.101562 C 68.105469 28.984375 72.265625 24.808594 76.351562 20.558594 C 79.972656 16.800781 83.507812 12.957031 87.054688 9.125 L 95.976562 18 L 106.375 28.386719 L 106.410156 28.425781 C 106.683594 28.695312 107.0625 28.859375 107.476562 28.851562 C 108.296875 28.839844 108.949219 28.164062 108.9375 27.34375 L 108.820312 20.21875 L 116.019531 20.097656 C 116.109375 25.867188 116.253906 31.636719 116.367188 37.40625 L 116.367188 37.441406 C 116.371094 37.640625 116.449219 37.835938 116.601562 37.988281 L 126.316406 47.601562 L 136.058594 57.195312 C 136.140625 57.277344 136.277344 57.28125 136.363281 57.199219 C 136.457031 57.113281 136.460938 56.972656 136.378906 56.882812 "/></g><path style=" stroke:none;fill-rule:nonzero;fill:#393536;fill-opacity:1;" d="M 77.359375 46.757812 L 86.320312 46.757812 L 86.320312 37.769531 L 77.359375 37.769531 L 77.359375 46.757812 "/><g clip-rule="nonzero" clip-path="url(#0a20d96cd1)"><path style=" stroke:none;fill-rule:nonzero;fill:#393536;fill-opacity:1;" d="M 77.359375 57.039062 L 86.320312 57.039062 L 86.320312 48.050781 L 77.359375 48.050781 L 77.359375 57.039062 "/></g><g clip-rule="nonzero" clip-path="url(#585b4ce08d)"><path style=" stroke:none;fill-rule:nonzero;fill:#393536;fill-opacity:1;" d="M 87.667969 57.039062 L 96.628906 57.039062 L 96.628906 48.050781 L 87.667969 48.050781 L 87.667969 57.039062 "/></g><path style=" stroke:none;fill-rule:nonzero;fill:#393536;fill-opacity:1;" d="M 87.667969 46.757812 L 96.628906 46.757812 L 96.628906 37.769531 L 87.667969 37.769531 L 87.667969 46.757812 "/><g clip-rule="nonzero" clip-path="url(#989f03bb26)"><path style=" stroke:none;fill-rule:nonzero;fill:#393536;fill-opacity:1;" d="M 107.75 35.636719 C 104.40625 32.078125 101.011719 28.570312 97.644531 25.035156 L 87.472656 14.488281 L 87.457031 14.472656 C 87.195312 14.21875 86.769531 14.222656 86.511719 14.488281 L 76.347656 25.035156 C 72.976562 28.570312 69.582031 32.082031 66.238281 35.640625 L 56.179688 46.289062 C 52.863281 49.875 49.511719 53.425781 46.222656 57.039062 C 49.726562 53.636719 53.171875 50.175781 56.652344 46.746094 L 66.976562 36.359375 C 70.425781 32.902344 73.828125 29.398438 77.253906 25.917969 L 86.992188 15.917969 L 96.734375 25.921875 C 100.160156 29.398438 103.558594 32.90625 107.011719 36.359375 L 117.339844 46.746094 C 120.816406 50.175781 124.261719 53.636719 127.765625 57.039062 C 124.480469 53.425781 121.128906 49.875 117.808594 46.289062 L 107.75 35.636719 "/></g><g style="fill:#000000;fill-opacity:1;"><g transform="translate(50.191379, 68.493224)"><path style="stroke:none" d="M 4.890625 0 L 0.1875 0 L 0.1875 -0.234375 L 0.953125 -0.234375 L 0.953125 -7.359375 L 0.1875 -7.359375 L 0.1875 -7.609375 L 4.890625 -7.609375 C 5.242188 -7.609375 5.5625 -7.519531 5.84375 -7.34375 C 6.132812 -7.175781 6.363281 -6.945312 6.53125 -6.65625 C 6.707031 -6.363281 6.796875 -6.046875 6.796875 -5.703125 L 6.796875 -1.90625 C 6.796875 -1.5625 6.707031 -1.242188 6.53125 -0.953125 C 6.363281 -0.660156 6.132812 -0.425781 5.84375 -0.25 C 5.5625 -0.0820312 5.242188 0 4.890625 0 Z M 4.890625 -1.375 L 4.890625 -6.21875 L 2.859375 -6.21875 L 2.859375 -1.375 Z M 4.890625 -1.375 "/></g></g><g style="fill:#000000;fill-opacity:1;"><g transform="translate(57.461458, 68.493224)"><path style="stroke:none" d="M 1 -4.28125 L 0.765625 -4.28125 L 0.765625 -6.65625 L 4.28125 -6.65625 C 4.625 -6.65625 4.9375 -6.566406 5.21875 -6.390625 C 5.507812 -6.222656 5.738281 -5.992188 5.90625 -5.703125 C 6.082031 -5.410156 6.171875 -5.09375 6.171875 -4.75 L 6.171875 -0.234375 L 6.65625 -0.234375 L 6.65625 0 L 4.5625 0 L 4.46875 -0.328125 L 2.5625 0 L 2.375 0 C 2.03125 0 1.710938 -0.0820312 1.421875 -0.25 C 1.140625 -0.425781 0.910156 -0.660156 0.734375 -0.953125 C 0.554688 -1.242188 0.46875 -1.5625 0.46875 -1.90625 L 0.46875 -2.375 C 0.46875 -2.71875 0.554688 -3.035156 0.734375 -3.328125 C 0.910156 -3.617188 1.140625 -3.847656 1.421875 -4.015625 C 1.710938 -4.191406 2.03125 -4.28125 2.375 -4.28125 L 2.5625 -4.28125 L 4.28125 -4.03125 L 4.28125 -5.265625 L 1 -5.03125 Z M 4.28125 -1.609375 L 4.28125 -2.65625 L 2.375 -2.890625 L 2.375 -1.375 Z M 4.28125 -1.609375 "/></g></g><g style="fill:#000000;fill-opacity:1;"><g transform="translate(64.308856, 68.493224)"><path style="stroke:none" d="M 4.890625 -4.28125 L 4.65625 -4.28125 L 4.65625 -5.03125 L 2.75 -5.265625 L 2.75 -0.234375 L 3.421875 -0.234375 L 3.421875 0 L 0.1875 0 L 0.1875 -0.234375 L 0.859375 -0.234375 L 0.859375 -6.40625 L 0.1875 -6.40625 L 0.1875 -6.65625 L 2.5625 -6.65625 L 2.65625 -6.3125 L 4.21875 -6.65625 L 4.890625 -6.65625 Z M 4.890625 -4.28125 "/></g></g><g style="fill:#000000;fill-opacity:1;"><g transform="translate(69.391568, 68.493224)"><path style="stroke:none" d="M 3.328125 0 L 0.09375 0 L 0.09375 -0.234375 L 0.765625 -0.234375 L 0.765625 -6.40625 L 0.09375 -6.40625 L 0.09375 -6.65625 L 2.65625 -6.65625 L 2.65625 -0.234375 L 3.328125 -0.234375 Z M 2.65625 -7.125 L 0.765625 -7.125 L 0.765625 -8.5 L 2.65625 -8.5 Z M 2.65625 -7.125 "/></g></g><g style="fill:#000000;fill-opacity:1;"><g transform="translate(72.815267, 68.493224)"><path style="stroke:none" d=""/></g></g><g style="fill:#000000;fill-opacity:1;"><g transform="translate(76.61938, 68.493224)"><path style="stroke:none" d="M 4.375 0 L 0.703125 0 L 0.703125 -2.375 L 0.953125 -2.375 L 0.953125 -1.71875 L 4.375 -1.46875 L 4.375 -3.078125 L 2.5625 -2.859375 L 2.375 -2.859375 C 2.03125 -2.859375 1.710938 -2.941406 1.421875 -3.109375 C 1.140625 -3.285156 0.910156 -3.515625 0.734375 -3.796875 C 0.554688 -4.085938 0.46875 -4.40625 0.46875 -4.75 L 0.46875 -5.703125 C 0.46875 -6.046875 0.554688 -6.363281 0.734375 -6.65625 C 0.910156 -6.945312 1.140625 -7.175781 1.421875 -7.34375 C 1.710938 -7.519531 2.03125 -7.609375 2.375 -7.609375 L 6.03125 -7.609375 L 6.03125 -5.234375 L 5.796875 -5.234375 L 5.796875 -5.890625 L 2.375 -6.125 L 2.375 -4.515625 L 4.1875 -4.75 L 4.375 -4.75 C 4.71875 -4.75 5.03125 -4.660156 5.3125 -4.484375 C 5.601562 -4.316406 5.835938 -4.085938 6.015625 -3.796875 C 6.191406 -3.515625 6.28125 -3.203125 6.28125 -2.859375 L 6.28125 -1.90625 C 6.28125 -1.5625 6.191406 -1.242188 6.015625 -0.953125 C 5.835938 -0.660156 5.601562 -0.425781 5.3125 -0.25 C 5.03125 -0.0820312 4.71875 0 4.375 0 Z M 4.375 0 "/></g></g><g style="fill:#000000;fill-opacity:1;"><g transform="translate(83.371675, 68.493224)"><path style="stroke:none" d="M 6.171875 -4.75 L 6.171875 -2.609375 C 6.171875 -2.535156 6.148438 -2.476562 6.109375 -2.4375 C 6.066406 -2.394531 6.007812 -2.375 5.9375 -2.375 L 2.375 -2.609375 L 2.375 -1.375 L 5.703125 -1.609375 L 5.703125 0 L 2.375 0 C 2.03125 0 1.710938 -0.0820312 1.421875 -0.25 C 1.140625 -0.425781 0.910156 -0.660156 0.734375 -0.953125 C 0.554688 -1.242188 0.46875 -1.5625 0.46875 -1.90625 L 0.46875 -4.75 C 0.46875 -5.09375 0.554688 -5.410156 0.734375 -5.703125 C 0.910156 -5.992188 1.140625 -6.222656 1.421875 -6.390625 C 1.710938 -6.566406 2.03125 -6.65625 2.375 -6.65625 L 4.28125 -6.65625 C 4.625 -6.65625 4.9375 -6.566406 5.21875 -6.390625 C 5.507812 -6.222656 5.738281 -5.992188 5.90625 -5.703125 C 6.082031 -5.410156 6.171875 -5.09375 6.171875 -4.75 Z M 4.28125 -3.75 L 4.28125 -5.265625 L 2.375 -5.265625 L 2.375 -4 Z M 4.28125 -3.75 "/></g></g><g style="fill:#000000;fill-opacity:1;"><g transform="translate(90.028865, 68.493224)"><path style="stroke:none" d="M 4.890625 -4.28125 L 4.65625 -4.28125 L 4.65625 -5.03125 L 2.75 -5.265625 L 2.75 -0.234375 L 3.421875 -0.234375 L 3.421875 0 L 0.1875 0 L 0.1875 -0.234375 L 0.859375 -0.234375 L 0.859375 -6.40625 L 0.1875 -6.40625 L 0.1875 -6.65625 L 2.5625 -6.65625 L 2.65625 -6.3125 L 4.21875 -6.65625 L 4.890625 -6.65625 Z M 4.890625 -4.28125 "/></g></g><g style="fill:#000000;fill-opacity:1;"><g transform="translate(95.111577, 68.493224)"><path style="stroke:none" d="M 3.375 -6.40625 L 2.71875 -6.40625 L 4.03125 -1.46875 L 4.109375 -1.46875 L 5.4375 -6.40625 L 4.78125 -6.40625 L 4.78125 -6.65625 L 7.546875 -6.65625 L 7.546875 -6.40625 L 6.859375 -6.40625 L 5.140625 0 L 2.46875 0 L 0.765625 -6.40625 L 0.09375 -6.40625 L 0.09375 -6.65625 L 3.375 -6.65625 Z M 3.375 -6.40625 "/></g></g><g style="fill:#000000;fill-opacity:1;"><g transform="translate(102.762064, 68.493224)"><path style="stroke:none" d="M 3.328125 0 L 0.09375 0 L 0.09375 -0.234375 L 0.765625 -0.234375 L 0.765625 -6.40625 L 0.09375 -6.40625 L 0.09375 -6.65625 L 2.65625 -6.65625 L 2.65625 -0.234375 L 3.328125 -0.234375 Z M 2.65625 -7.125 L 0.765625 -7.125 L 0.765625 -8.5 L 2.65625 -8.5 Z M 2.65625 -7.125 "/></g></g><g style="fill:#000000;fill-opacity:1;"><g transform="translate(106.185763, 68.493224)"><path style="stroke:none" d="M 5.65625 -4.28125 L 5.421875 -4.28125 L 5.421875 -5.03125 L 2.375 -5.265625 L 2.375 -1.375 L 5.421875 -1.609375 L 5.421875 -2.375 L 5.65625 -2.375 L 5.65625 0 L 2.375 0 C 2.03125 0 1.710938 -0.0820312 1.421875 -0.25 C 1.140625 -0.425781 0.910156 -0.660156 0.734375 -0.953125 C 0.554688 -1.242188 0.46875 -1.5625 0.46875 -1.90625 L 0.46875 -4.75 C 0.46875 -5.09375 0.554688 -5.410156 0.734375 -5.703125 C 0.910156 -5.992188 1.140625 -6.222656 1.421875 -6.390625 C 1.710938 -6.566406 2.03125 -6.65625 2.375 -6.65625 L 5.65625 -6.65625 Z M 5.65625 -4.28125 "/></g></g><g style="fill:#000000;fill-opacity:1;"><g transform="translate(112.314607, 68.493224)"><path style="stroke:none" d="M 6.171875 -4.75 L 6.171875 -2.609375 C 6.171875 -2.535156 6.148438 -2.476562 6.109375 -2.4375 C 6.066406 -2.394531 6.007812 -2.375 5.9375 -2.375 L 2.375 -2.609375 L 2.375 -1.375 L 5.703125 -1.609375 L 5.703125 0 L 2.375 0 C 2.03125 0 1.710938 -0.0820312 1.421875 -0.25 C 1.140625 -0.425781 0.910156 -0.660156 0.734375 -0.953125 C 0.554688 -1.242188 0.46875 -1.5625 0.46875 -1.90625 L 0.46875 -4.75 C 0.46875 -5.09375 0.554688 -5.410156 0.734375 -5.703125 C 0.910156 -5.992188 1.140625 -6.222656 1.421875 -6.390625 C 1.710938 -6.566406 2.03125 -6.65625 2.375 -6.65625 L 4.28125 -6.65625 C 4.625 -6.65625 4.9375 -6.566406 5.21875 -6.390625 C 5.507812 -6.222656 5.738281 -5.992188 5.90625 -5.703125 C 6.082031 -5.410156 6.171875 -5.09375 6.171875 -4.75 Z M 4.28125 -3.75 L 4.28125 -5.265625 L 2.375 -5.265625 L 2.375 -4 Z M 4.28125 -3.75 "/></g></g><g style="fill:#000000;fill-opacity:1;"><g transform="translate(118.971797, 68.493224)"><path style="stroke:none" d="M 4.28125 0 L 0.703125 0 L 0.703125 -2.375 L 0.953125 -2.375 L 0.953125 -1.71875 L 4.28125 -1.46875 L 4.28125 -2.609375 L 2.5625 -2.375 L 2.375 -2.375 C 2.03125 -2.375 1.710938 -2.457031 1.421875 -2.625 C 1.140625 -2.800781 0.910156 -3.035156 0.734375 -3.328125 C 0.554688 -3.617188 0.46875 -3.9375 0.46875 -4.28125 L 0.46875 -4.75 C 0.46875 -5.09375 0.554688 -5.410156 0.734375 -5.703125 C 0.910156 -5.992188 1.140625 -6.222656 1.421875 -6.390625 C 1.710938 -6.566406 2.03125 -6.65625 2.375 -6.65625 L 5.9375 -6.65625 L 5.9375 -4.28125 L 5.703125 -4.28125 L 5.703125 -4.9375 L 2.375 -5.171875 L 2.375 -4.03125 L 4.09375 -4.28125 L 4.28125 -4.28125 C 4.625 -4.28125 4.9375 -4.191406 5.21875 -4.015625 C 5.507812 -3.847656 5.738281 -3.617188 5.90625 -3.328125 C 6.082031 -3.035156 6.171875 -2.71875 6.171875 -2.375 L 6.171875 -1.90625 C 6.171875 -1.5625 6.082031 -1.242188 5.90625 -0.953125 C 5.738281 -0.660156 5.507812 -0.425781 5.21875 -0.25 C 4.9375 -0.0820312 4.625 0 4.28125 0 Z M 4.28125 0 "/></g></g><g style="fill:#000000;fill-opacity:1;"><g transform="translate(62.422698, 82.861154)"><path style="stroke:none" d="M 5.65625 -5.234375 L 5.421875 -5.234375 L 5.421875 -5.984375 L 2.375 -6.21875 L 2.375 -1.375 L 5.421875 -1.609375 L 5.421875 -2.375 L 5.65625 -2.375 L 5.65625 0 L 2.375 0 C 2.03125 0 1.710938 -0.0820312 1.421875 -0.25 C 1.140625 -0.425781 0.910156 -0.660156 0.734375 -0.953125 C 0.554688 -1.242188 0.46875 -1.5625 0.46875 -1.90625 L 0.46875 -5.703125 C 0.46875 -6.046875 0.554688 -6.363281 0.734375 -6.65625 C 0.910156 -6.945312 1.140625 -7.175781 1.421875 -7.34375 C 1.710938 -7.519531 2.03125 -7.609375 2.375 -7.609375 L 5.65625 -7.609375 Z M 5.65625 -5.234375 "/></g></g><g style="fill:#000000;fill-opacity:1;"><g transform="translate(68.551542, 82.861154)"><path style="stroke:none" d="M 4.28125 0 L 2.375 0 C 2.03125 0 1.710938 -0.0820312 1.421875 -0.25 C 1.140625 -0.425781 0.910156 -0.660156 0.734375 -0.953125 C 0.554688 -1.242188 0.46875 -1.5625 0.46875 -1.90625 L 0.46875 -4.75 C 0.46875 -5.09375 0.554688 -5.410156 0.734375 -5.703125 C 0.910156 -5.992188 1.140625 -6.222656 1.421875 -6.390625 C 1.710938 -6.566406 2.03125 -6.65625 2.375 -6.65625 L 4.28125 -6.65625 C 4.625 -6.65625 4.9375 -6.566406 5.21875 -6.390625 C 5.507812 -6.222656 5.738281 -5.992188 5.90625 -5.703125 C 6.082031 -5.410156 6.171875 -5.09375 6.171875 -4.75 L 6.171875 -1.90625 C 6.171875 -1.5625 6.082031 -1.242188 5.90625 -0.953125 C 5.738281 -0.660156 5.507812 -0.425781 5.21875 -0.25 C 4.9375 -0.0820312 4.625 0 4.28125 0 Z M 4.28125 -1.375 L 4.28125 -5.265625 L 2.375 -5.265625 L 2.375 -1.375 Z M 4.28125 -1.375 "/></g></g><g style="fill:#000000;fill-opacity:1;"><g transform="translate(75.208733, 82.861154)"><path style="stroke:none" d="M 6.75 0 L 4.1875 0 L 4.1875 -5.265625 L 2.75 -5.03125 L 2.75 -0.234375 L 3.421875 -0.234375 L 3.421875 0 L 0.1875 0 L 0.1875 -0.234375 L 0.859375 -0.234375 L 0.859375 -6.40625 L 0.1875 -6.40625 L 0.1875 -6.65625 L 2.46875 -6.65625 L 2.5625 -6.3125 L 4 -6.65625 L 4.1875 -6.65625 C 4.40625 -6.65625 4.617188 -6.613281 4.828125 -6.53125 C 5.046875 -6.445312 5.234375 -6.335938 5.390625 -6.203125 L 7.3125 -6.65625 L 7.515625 -6.65625 C 7.859375 -6.65625 8.171875 -6.566406 8.453125 -6.390625 C 8.742188 -6.222656 8.972656 -5.992188 9.140625 -5.703125 C 9.316406 -5.410156 9.40625 -5.09375 9.40625 -4.75 L 9.40625 -0.234375 L 10.078125 -0.234375 L 10.078125 0 L 7.515625 0 L 7.515625 -5.265625 L 6.078125 -5.03125 L 6.078125 -0.234375 L 6.75 -0.234375 Z M 6.75 0 "/></g></g><g style="fill:#000000;fill-opacity:1;"><g transform="translate(85.479829, 82.861154)"><path style="stroke:none" d="M 0.1875 -6.65625 L 2.46875 -6.65625 L 2.5625 -6.3125 L 4.46875 -6.65625 L 4.65625 -6.65625 C 5 -6.65625 5.316406 -6.566406 5.609375 -6.390625 C 5.898438 -6.222656 6.128906 -5.992188 6.296875 -5.703125 C 6.472656 -5.410156 6.5625 -5.09375 6.5625 -4.75 L 6.5625 -1.90625 C 6.5625 -1.5625 6.472656 -1.242188 6.296875 -0.953125 C 6.128906 -0.660156 5.898438 -0.425781 5.609375 -0.25 C 5.316406 -0.0820312 5 0 4.65625 0 L 4.46875 0 L 2.75 -0.234375 L 2.75 1.1875 L 3.421875 1.1875 L 3.421875 1.421875 L 0.1875 1.421875 L 0.1875 1.1875 L 0.859375 1.1875 L 0.859375 -6.40625 L 0.1875 -6.40625 Z M 2.75 -5.03125 L 2.75 -1.609375 L 4.65625 -1.375 L 4.65625 -5.265625 Z M 2.75 -5.03125 "/></g></g><g style="fill:#000000;fill-opacity:1;"><g transform="translate(92.517434, 82.861154)"><path style="stroke:none" d="M 1 -4.28125 L 0.765625 -4.28125 L 0.765625 -6.65625 L 4.28125 -6.65625 C 4.625 -6.65625 4.9375 -6.566406 5.21875 -6.390625 C 5.507812 -6.222656 5.738281 -5.992188 5.90625 -5.703125 C 6.082031 -5.410156 6.171875 -5.09375 6.171875 -4.75 L 6.171875 -0.234375 L 6.65625 -0.234375 L 6.65625 0 L 4.5625 0 L 4.46875 -0.328125 L 2.5625 0 L 2.375 0 C 2.03125 0 1.710938 -0.0820312 1.421875 -0.25 C 1.140625 -0.425781 0.910156 -0.660156 0.734375 -0.953125 C 0.554688 -1.242188 0.46875 -1.5625 0.46875 -1.90625 L 0.46875 -2.375 C 0.46875 -2.71875 0.554688 -3.035156 0.734375 -3.328125 C 0.910156 -3.617188 1.140625 -3.847656 1.421875 -4.015625 C 1.710938 -4.191406 2.03125 -4.28125 2.375 -4.28125 L 2.5625 -4.28125 L 4.28125 -4.03125 L 4.28125 -5.265625 L 1 -5.03125 Z M 4.28125 -1.609375 L 4.28125 -2.65625 L 2.375 -2.890625 L 2.375 -1.375 Z M 4.28125 -1.609375 "/></g></g><g style="fill:#000000;fill-opacity:1;"><g transform="translate(99.364832, 82.861154)"><path style="stroke:none" d="M 3.421875 0 L 0.1875 0 L 0.1875 -0.234375 L 0.859375 -0.234375 L 0.859375 -6.40625 L 0.1875 -6.40625 L 0.1875 -6.65625 L 2.375 -6.65625 L 2.46875 -6.3125 L 4.21875 -6.65625 L 4.421875 -6.65625 C 4.765625 -6.65625 5.078125 -6.566406 5.359375 -6.390625 C 5.648438 -6.222656 5.878906 -5.992188 6.046875 -5.703125 C 6.222656 -5.410156 6.3125 -5.09375 6.3125 -4.75 L 6.3125 -0.234375 L 6.984375 -0.234375 L 6.984375 0 L 4.421875 0 L 4.421875 -5.265625 L 2.75 -5.03125 L 2.75 -0.234375 L 3.421875 -0.234375 Z M 3.421875 0 "/></g></g><g style="fill:#000000;fill-opacity:1;"><g transform="translate(106.201638, 82.861154)"><path style="stroke:none" d="M 0.1875 -6.65625 L 2.75 -6.65625 L 2.75 -2.1875 L 4.421875 -2.421875 L 4.421875 -6.40625 L 3.75 -6.40625 L 3.75 -6.65625 L 6.984375 -6.65625 L 6.984375 -6.40625 L 6.3125 -6.40625 L 6.3125 -0.46875 C 6.3125 -0.125 6.222656 0.1875 6.046875 0.46875 C 5.878906 0.757812 5.648438 0.988281 5.359375 1.15625 C 5.078125 1.332031 4.765625 1.421875 4.421875 1.421875 L 1.375 1.421875 L 1.375 -0.1875 L 4.421875 0.046875 L 4.421875 -1.046875 L 2.953125 -0.796875 L 2.75 -0.796875 C 2.40625 -0.796875 2.085938 -0.878906 1.796875 -1.046875 C 1.515625 -1.222656 1.285156 -1.457031 1.109375 -1.75 C 0.941406 -2.039062 0.859375 -2.359375 0.859375 -2.703125 L 0.859375 -6.40625 L 0.1875 -6.40625 Z M 0.1875 -6.65625 "/></g></g><g style="fill:#000000;fill-opacity:1;"><g transform="translate(123.152324, 87.223168)"><path style="stroke:none" d="M 45.65625 0 L 1.78125 0 L 1.78125 -2.171875 L 8.875 -2.171875 L 8.875 -68.734375 L 1.78125 -68.734375 L 1.78125 -71 L 45.65625 -71 C 48.945312 -71 51.921875 -70.191406 54.578125 -68.578125 C 57.242188 -66.972656 59.378906 -64.820312 60.984375 -62.125 C 62.597656 -59.425781 63.40625 -56.46875 63.40625 -53.25 L 63.40625 -17.75 C 63.40625 -14.53125 62.597656 -11.570312 60.984375 -8.875 C 59.378906 -6.175781 57.242188 -4.019531 54.578125 -2.40625 C 51.921875 -0.800781 48.945312 0 45.65625 0 Z M 45.65625 -12.8125 L 45.65625 -58.078125 L 26.625 -58.078125 L 26.625 -12.8125 Z M 45.65625 -12.8125 "/></g></g><g style="fill:#000000;fill-opacity:1;"><g transform="translate(190.991347, 87.223168)"><path style="stroke:none" d="M 40.828125 0 L 6.609375 0 L 6.609375 -22.1875 L 8.875 -22.1875 L 8.875 -15.96875 L 40.828125 -13.703125 L 40.828125 -28.796875 L 23.96875 -26.625 L 22.1875 -26.625 C 18.96875 -26.625 16.007812 -27.425781 13.3125 -29.03125 C 10.613281 -30.644531 8.457031 -32.800781 6.84375 -35.5 C 5.238281 -38.195312 4.4375 -41.15625 4.4375 -44.375 L 4.4375 -53.25 C 4.4375 -56.46875 5.238281 -59.425781 6.84375 -62.125 C 8.457031 -64.820312 10.613281 -66.972656 13.3125 -68.578125 C 16.007812 -70.191406 18.96875 -71 22.1875 -71 L 56.3125 -71 L 56.3125 -48.8125 L 54.140625 -48.8125 L 54.140625 -55.03125 L 22.1875 -57.1875 L 22.1875 -42.109375 L 39.046875 -44.375 L 40.828125 -44.375 C 44.046875 -44.375 47 -43.566406 49.6875 -41.953125 C 52.382812 -40.347656 54.539062 -38.195312 56.15625 -35.5 C 57.769531 -32.800781 58.578125 -29.84375 58.578125 -26.625 L 58.578125 -17.75 C 58.578125 -14.53125 57.769531 -11.570312 56.15625 -8.875 C 54.539062 -6.175781 52.382812 -4.019531 49.6875 -2.40625 C 47 -0.800781 44.046875 0 40.828125 0 Z M 40.828125 0 "/></g></g></g></svg>